<svg xmlns="http://www.w3.org/2000/svg" viewBox="0 0 512 512">
  <defs>
    <linearGradient id="bg" x1="0%" y1="0%" x2="100%" y2="100%">
      <stop offset="0%" stop-color="#121212"/>
      <stop offset="100%" stop-color="#080808"/>
    </linearGradient>
    <radialGradient id="glow" cx="50%" cy="42%" r="38%">
      <stop offset="0%" stop-color="#e02828" stop-opacity="0.45"/>
      <stop offset="100%" stop-color="#e02828" stop-opacity="0"/>
    </radialGradient>
  </defs>
  <rect width="512" height="512" rx="96" fill="url(#bg)"/>
  <ellipse cx="256" cy="220" rx="120" ry="100" fill="url(#glow)"/>
  <path d="M256 108 L372 192 L372 328 L256 412 L140 328 L140 192 Z" fill="none" stroke="#e8c252" stroke-width="6" stroke-linejoin="round" opacity="0.85"/>
  <path d="M256 148 L332 204 L332 316 L256 372 L180 316 L180 204 Z" fill="#c01828" stroke="#e02828" stroke-width="8" stroke-linejoin="round"/>
  <path d="M256 198 L302 232 L302 288 L256 322 L210 288 L210 232 Z" fill="#080808" stroke="#e02828" stroke-width="4" stroke-linejoin="round"/>
  <circle cx="256" cy="260" r="22" fill="#e02828"/>
  <circle cx="128" cy="128" r="18" fill="#5eb8e8" opacity="0.9"/>
  <circle cx="384" cy="128" r="18" fill="#5eb8e8" opacity="0.9"/>
  <circle cx="128" cy="384" r="18" fill="#e8c252" opacity="0.9"/>
  <circle cx="384" cy="384" r="18" fill="#e8c252" opacity="0.9"/>
</svg>
